<svg width="2300" height="2300" viewBox="0 0 2300 2300" fill="none" xmlns="http://www.w3.org/2000/svg">
<rect x="12.5" y="12.5" width="2275" height="2275" rx="187.5" fill="#8CD5FA" stroke="#1C88BE" stroke-width="25"/>
<mask id="mask0_2137_4" style="mask-type:alpha" maskUnits="userSpaceOnUse" x="142" y="120" width="2000" height="2000">
<rect width="2000" height="2000" rx="50" transform="matrix(0 -1 -1 0 2142 2120)" fill="#1E7685"/>
</mask>
<g mask="url(#mask0_2137_4)">
<rect width="2828.43" height="2016.8" rx="50" transform="matrix(0.707107 0.707107 0.707107 -0.707107 142 120)" fill="url(#paint0_linear_2137_4)"/>
</g>
<mask id="mask1_2137_4" style="mask-type:alpha" maskUnits="userSpaceOnUse" x="721" y="366" width="1141" height="1254">
<rect width="1254" height="1141" rx="50" transform="matrix(0 -1 -1 0 1862 1620)" fill="#D9D9D9"/>
</mask>
<g mask="url(#mask1_2137_4)">
<rect width="1695.4" height="1208.9" rx="50" transform="matrix(0.672996 0.739646 0.672996 -0.739646 728 306)" fill="url(#paint1_linear_2137_4)"/>
</g>
<mask id="mask2_2137_4" style="mask-type:alpha" maskUnits="userSpaceOnUse" x="142" y="520" width="1600" height="1600">
<rect width="1600" height="1600" rx="50" transform="matrix(0 1 1 0 142 520)" fill="#D9D9D9"/>
</mask>
<g mask="url(#mask2_2137_4)">
<rect width="2262.74" height="1613.44" rx="50" transform="matrix(-0.707107 -0.707107 -0.707107 0.707107 1742 2120)" fill="url(#paint2_linear_2137_4)"/>
</g>
<mask id="mask3_2137_4" style="mask-type:alpha" maskUnits="userSpaceOnUse" x="367" y="1123" width="801" height="801">
<rect width="800" height="800" rx="50" transform="matrix(0 1 1 0 367.6 1123.2)" fill="#D9D9D9"/>
</mask>
<g mask="url(#mask3_2137_4)">
<rect width="1131.37" height="806.72" rx="50" transform="matrix(-0.707107 -0.707107 -0.707107 0.707107 1167.6 1923.2)" fill="url(#paint3_linear_2137_4)"/>
</g>
<defs>
<linearGradient id="paint0_linear_2137_4" x1="2594.73" y1="245.72" x2="85.9136" y2="148.139" gradientUnits="userSpaceOnUse">
<stop stop-color="#1E8CC2"/>
<stop offset="1" stop-color="#075176"/>
</linearGradient>
<linearGradient id="paint1_linear_2137_4" x1="-60.6107" y1="188.614" x2="1742.45" y2="239.476" gradientUnits="userSpaceOnUse">
<stop stop-color="#00DAFF"/>
<stop offset="1" stop-color="#D8EAED"/>
</linearGradient>
<linearGradient id="paint2_linear_2137_4" x1="0" y1="806.72" x2="2262.74" y2="806.72" gradientUnits="userSpaceOnUse">
<stop stop-color="#10A5EF"/>
<stop offset="1" stop-color="#075176"/>
</linearGradient>
<linearGradient id="paint3_linear_2137_4" x1="0" y1="403.36" x2="1131.37" y2="403.36" gradientUnits="userSpaceOnUse">
<stop stop-color="#A0E6F2"/>
<stop offset="1" stop-color="#14DBFD"/>
</linearGradient>
</defs>
</svg>
